# xmcd
#
# Track frame offsets:
#	180
#	15525
#	28272
#	41967
#	58693
#	70527
#	81311
#	93484
#	105283
#	116359
#	126082
#	138346
#	150746
#	165777
#
# Disc length: 2352 seconds
#
# Revision: 1
# Processed by: cddbd v1.5.2PL0 Copyright (c) Steve Scherf et al.
# Submitted via: EasyCDDAExtractor 6.5.0.1
#
DISCID=ab092e0e
DTITLE=Cathy Dale - I Believe In Me
DYEAR=1988
DGENRE=Country
TTITLE0=I Believe In Me (Cause I Believe In You)
TTITLE1=Could It Be My Eyes Are Lyin'
TTITLE2=The Days Never End (And The Nights Keep Coming Too Soon)
TTITLE3=Life Is A Sad Song
TTITLE4=Tell Your Memory To Leave Us Alone
TTITLE5=Take Some Time Out For Love
TTITLE6=Sometimes Makin' Love Is Makin' War
TTITLE7=Intimate Strangers
TTITLE8=Raincheck
TTITLE9=Somebody Else
TTITLE10=A Misty Morning Memory
TTITLE11=I See The Hurt In Your Eyes
TTITLE12=(Who Knows) The World Might End Tonight
TTITLE13=Love Is Where You Leave Your Heart
EXTD=
EXTT0=
EXTT1=
EXTT2=
EXTT3=
EXTT4=
EXTT5=
EXTT6=
EXTT7=
EXTT8=
EXTT9=
EXTT10=
EXTT11=
EXTT12=
EXTT13=
PLAYORDER=
